<svg width="22" height="22" viewBox="0 0 22 22" fill="none" xmlns="http://www.w3.org/2000/svg">
<path d="M17.3428 7.00561L14.9942 4.65704C14.6877 4.36912 14.286 4.20392 13.8656 4.19285C13.4452 4.18179 13.0354 4.32564 12.7142 4.59704L4.99991 12.3113C4.72285 12.5907 4.55034 12.9569 4.51133 13.3485L4.14276 16.9228C4.13122 17.0483 4.14751 17.1748 4.19047 17.2934C4.23344 17.4119 4.30202 17.5195 4.39133 17.6085C4.47143 17.6879 4.56641 17.7508 4.67084 17.7934C4.77528 17.8361 4.8871 17.8577 4.99991 17.857H5.07705L8.65133 17.5313C9.04287 17.4923 9.40908 17.3198 9.68848 17.0428L17.4028 9.32847C17.7022 9.01215 17.864 8.59005 17.8527 8.15464C17.8415 7.71924 17.6581 7.30604 17.3428 7.00561ZM14.4285 9.86847L12.1313 7.57132L13.8028 5.85704L16.1428 8.19704L14.4285 9.86847Z" fill="white"/>
</svg>
