<svg width="18" height="18" viewBox="0 0 18 18" fill="none" xmlns="http://www.w3.org/2000/svg">
<path d="M15.4286 4.71433H11.8572V3.52147C11.8404 3.0642 11.643 2.63223 11.3083 2.32025C10.9736 2.00828 10.5288 1.84175 10.0715 1.85719H7.92861C7.47129 1.84175 7.02651 2.00828 6.69177 2.32025C6.35703 2.63223 6.15965 3.0642 6.14289 3.52147V4.71433H2.57146C2.38202 4.71433 2.20034 4.78958 2.06639 4.92354C1.93243 5.05749 1.85718 5.23917 1.85718 5.42861C1.85718 5.61805 1.93243 5.79974 2.06639 5.93369C2.20034 6.06765 2.38202 6.1429 2.57146 6.1429H3.28575V14C3.28575 14.5684 3.51151 15.1134 3.91338 15.5153C4.31524 15.9171 4.86029 16.1429 5.42861 16.1429H12.5715C13.1398 16.1429 13.6848 15.9171 14.0867 15.5153C14.4886 15.1134 14.7143 14.5684 14.7143 14V6.1429H15.4286C15.618 6.1429 15.7997 6.06765 15.9337 5.93369C16.0676 5.79974 16.1429 5.61805 16.1429 5.42861C16.1429 5.23917 16.0676 5.05749 15.9337 4.92354C15.7997 4.78958 15.618 4.71433 15.4286 4.71433ZM7.57146 11.8572C7.57146 12.0466 7.49621 12.2283 7.36225 12.3623C7.2283 12.4962 7.04662 12.5715 6.85718 12.5715C6.66774 12.5715 6.48606 12.4962 6.3521 12.3623C6.21815 12.2283 6.14289 12.0466 6.14289 11.8572V9.00004C6.14289 8.8106 6.21815 8.62892 6.3521 8.49497C6.48606 8.36101 6.66774 8.28576 6.85718 8.28576C7.04662 8.28576 7.2283 8.36101 7.36225 8.49497C7.49621 8.62892 7.57146 8.8106 7.57146 9.00004V11.8572ZM7.57146 3.52147C7.57146 3.40719 7.72146 3.28576 7.92861 3.28576H10.0715C10.2786 3.28576 10.4286 3.40719 10.4286 3.52147V4.71433H7.57146V3.52147ZM11.8572 11.8572C11.8572 12.0466 11.7819 12.2283 11.648 12.3623C11.514 12.4962 11.3323 12.5715 11.1429 12.5715C10.9535 12.5715 10.7718 12.4962 10.6378 12.3623C10.5039 12.2283 10.4286 12.0466 10.4286 11.8572V9.00004C10.4286 8.8106 10.5039 8.62892 10.6378 8.49497C10.7718 8.36101 10.9535 8.28576 11.1429 8.28576C11.3323 8.28576 11.514 8.36101 11.648 8.49497C11.7819 8.62892 11.8572 8.8106 11.8572 9.00004V11.8572Z" fill="white"/>
</svg>
