<svg width="28" height="28" viewBox="0 0 28 28" fill="none" xmlns="http://www.w3.org/2000/svg">
<path d="M6.24667 19.5L5.41833 20.3283C5.20104 20.5469 5.07908 20.8426 5.07908 21.1508C5.07908 21.4591 5.20104 21.7547 5.41833 21.9733C5.63692 22.1906 5.93262 22.3126 6.24083 22.3126C6.54905 22.3126 6.84474 22.1906 7.06333 21.9733L7.89167 21.145C8.0828 20.9218 8.18267 20.6347 8.17133 20.3411C8.15999 20.0475 8.03827 19.769 7.83049 19.5612C7.62271 19.3534 7.34418 19.2317 7.05056 19.2203C6.75694 19.209 6.46985 19.3089 6.24667 19.5ZM5.5 13.6667C5.5 13.3572 5.37708 13.0605 5.15829 12.8417C4.9395 12.6229 4.64275 12.5 4.33333 12.5H3.16667C2.85725 12.5 2.5605 12.6229 2.34171 12.8417C2.12292 13.0605 2 13.3572 2 13.6667C2 13.9761 2.12292 14.2728 2.34171 14.4916C2.5605 14.7104 2.85725 14.8333 3.16667 14.8333H4.33333C4.64275 14.8333 4.9395 14.7104 5.15829 14.4916C5.37708 14.2728 5.5 13.9761 5.5 13.6667ZM13.6667 5.5C13.9761 5.5 14.2728 5.37708 14.4916 5.15829C14.7104 4.9395 14.8333 4.64275 14.8333 4.33333V3.16667C14.8333 2.85725 14.7104 2.5605 14.4916 2.34171C14.2728 2.12292 13.9761 2 13.6667 2C13.3572 2 13.0605 2.12292 12.8417 2.34171C12.6229 2.5605 12.5 2.85725 12.5 3.16667V4.33333C12.5 4.64275 12.6229 4.9395 12.8417 5.15829C13.0605 5.37708 13.3572 5.5 13.6667 5.5ZM6.24667 7.89167C6.46397 8.1072 6.75727 8.22871 7.06333 8.23C7.21688 8.23089 7.36908 8.20146 7.51122 8.1434C7.65337 8.08534 7.78265 7.9998 7.89167 7.89167C8.10896 7.67308 8.23093 7.37738 8.23093 7.06917C8.23093 6.76095 8.10896 6.46526 7.89167 6.24667L7.06333 5.41833C6.84015 5.2272 6.55306 5.12733 6.25944 5.13867C5.96582 5.15001 5.68729 5.27173 5.47951 5.47951C5.27173 5.68729 5.15001 5.96582 5.13867 6.25944C5.12733 6.55306 5.2272 6.84015 5.41833 7.06333L6.24667 7.89167ZM20.2467 8.23C20.5527 8.22871 20.846 8.1072 21.0633 7.89167L21.8917 7.06333C22.0138 6.95875 22.113 6.83004 22.183 6.6853C22.253 6.54056 22.2924 6.3829 22.2986 6.22223C22.3048 6.06156 22.2777 5.90134 22.2191 5.75162C22.1604 5.60191 22.0715 5.46594 21.9578 5.35224C21.8441 5.23854 21.7081 5.14958 21.5584 5.09092C21.4087 5.03227 21.2484 5.0052 21.0878 5.0114C20.9271 5.01761 20.7694 5.05696 20.6247 5.12699C20.48 5.19701 20.3513 5.2962 20.2467 5.41833L19.5 6.24667C19.2827 6.46526 19.1607 6.76095 19.1607 7.06917C19.1607 7.37738 19.2827 7.67308 19.5 7.89167C19.7057 8.09626 19.9802 8.21688 20.27 8.23H20.2467ZM24.1667 12.5H23C22.6906 12.5 22.3938 12.6229 22.175 12.8417C21.9562 13.0605 21.8333 13.3572 21.8333 13.6667C21.8333 13.9761 21.9562 14.2728 22.175 14.4916C22.3938 14.7104 22.6906 14.8333 23 14.8333H24.1667C24.4761 14.8333 24.7728 14.7104 24.9916 14.4916C25.2104 14.2728 25.3333 13.9761 25.3333 13.6667C25.3333 13.3572 25.2104 13.0605 24.9916 12.8417C24.7728 12.6229 24.4761 12.5 24.1667 12.5ZM13.6667 21.8333C13.3572 21.8333 13.0605 21.9562 12.8417 22.175C12.6229 22.3938 12.5 22.6906 12.5 23V24.1667C12.5 24.4761 12.6229 24.7728 12.8417 24.9916C13.0605 25.2104 13.3572 25.3333 13.6667 25.3333C13.9761 25.3333 14.2728 25.2104 14.4916 24.9916C14.7104 24.7728 14.8333 24.4761 14.8333 24.1667V23C14.8333 22.6906 14.7104 22.3938 14.4916 22.175C14.2728 21.9562 13.9761 21.8333 13.6667 21.8333ZM21.0867 19.5C20.865 19.3767 20.6092 19.329 20.358 19.3641C20.1068 19.3992 19.8739 19.5153 19.6946 19.6946C19.5153 19.8739 19.3992 20.1068 19.3641 20.358C19.329 20.6092 19.3767 20.865 19.5 21.0867L20.3283 21.915C20.5469 22.1323 20.8426 22.2543 21.1508 22.2543C21.4591 22.2543 21.7547 22.1323 21.9733 21.915C22.1906 21.6964 22.3126 21.4007 22.3126 21.0925C22.3126 20.7843 22.1906 20.4886 21.9733 20.27L21.0867 19.5ZM13.6667 7.25C12.3976 7.25 11.157 7.62633 10.1018 8.3314C9.04654 9.03648 8.2241 10.0386 7.73844 11.2111C7.25278 12.3836 7.12571 13.6738 7.37329 14.9185C7.62088 16.1632 8.23201 17.3066 9.1294 18.2039C10.0268 19.1013 11.1701 19.7125 12.4148 19.96C13.6595 20.2076 14.9497 20.0806 16.1222 19.5949C17.2947 19.1092 18.2969 18.2868 19.0019 17.2316C19.707 16.1764 20.0833 14.9358 20.0833 13.6667C20.0802 11.9658 19.4032 10.3355 18.2005 9.1328C16.9978 7.93011 15.3675 7.25308 13.6667 7.25ZM13.6667 17.75C12.8591 17.75 12.0696 17.5105 11.3981 17.0618C10.7266 16.6132 10.2032 15.9754 9.89416 15.2293C9.5851 14.4832 9.50424 13.6621 9.66179 12.87C9.81935 12.078 10.2083 11.3504 10.7793 10.7793C11.3504 10.2083 12.078 9.81935 12.87 9.66179C13.6621 9.50424 14.4832 9.5851 15.2293 9.89416C15.9754 10.2032 16.6132 10.7266 17.0618 11.3981C17.5105 12.0696 17.75 12.8591 17.75 13.6667C17.75 14.7496 17.3198 15.7882 16.554 16.554C15.7882 17.3198 14.7496 17.75 13.6667 17.75Z" fill="#F1C557"/>
</svg>
