<svg width="24" height="24" viewBox="0 0 24 24" fill="none" xmlns="http://www.w3.org/2000/svg">
<path d="M12.9999 2.36C12.8806 2.50435 12.8042 2.67931 12.7795 2.86494C12.7547 3.05058 12.7826 3.23943 12.8599 3.41C13.3438 4.46742 13.5928 5.61713 13.5899 6.78C13.5873 8.93115 12.7344 10.994 11.217 12.5189C9.69967 14.0437 7.64101 14.9068 5.48991 14.92C4.81574 14.9154 4.14445 14.8315 3.48991 14.67C3.31545 14.6357 3.135 14.6486 2.96716 14.7072C2.79932 14.7659 2.65016 14.8683 2.53504 15.0038C2.41992 15.1393 2.343 15.303 2.31222 15.4781C2.28144 15.6532 2.2979 15.8334 2.35991 16C3.06482 17.5677 4.15667 18.9304 5.53289 19.9602C6.90911 20.9901 8.52453 21.6531 10.2274 21.8872C11.9303 22.1212 13.6647 21.9185 15.2677 21.2981C16.8707 20.6778 18.2897 19.6601 19.3914 18.3407C20.4931 17.0213 21.2413 15.4435 21.5657 13.7556C21.8902 12.0676 21.7802 10.3248 21.2461 8.69105C20.7121 7.05726 19.7715 5.58604 18.5127 4.4156C17.2539 3.24517 15.7182 2.41394 14.0499 2C13.8589 1.94958 13.6572 1.95687 13.4704 2.02094C13.2835 2.08501 13.1198 2.20299 12.9999 2.36ZM19.6899 11.86C19.6781 13.5382 19.1478 15.1718 18.1716 16.537C17.1955 17.9022 15.8212 18.9323 14.237 19.4863C12.6528 20.0403 10.9361 20.0911 9.32191 19.6317C7.70773 19.1723 6.27501 18.2251 5.21991 16.92L5.48991 16.92C8.17839 16.9174 10.756 15.8482 12.657 13.9471C14.5581 12.0461 15.6273 9.46848 15.6299 6.78C15.6325 6.07412 15.5587 5.37002 15.4099 4.68C16.7154 5.37009 17.8077 6.40353 18.5691 7.66885C19.3304 8.93416 19.7317 10.3833 19.7299 11.86L19.6899 11.86Z" fill="#F1C557"/>
</svg>
